<?xml version="1.0" encoding="UTF-8"?>
<svg width="24px"
     height="24px"
     viewBox="0 0 24 24"
     version="1.1"
     xmlns="http://www.w3.org/2000/svg">
    <title>ic_warning_red</title>
    <g id="Symbols"
       stroke="none"
       stroke-width="1"
       fill="none"
       fill-rule="evenodd">
        <g id="01-Atoms-/-Icons-/-warning-/-#E60000">
            <g id="warning">
                <polygon id="bg"
                         fill-opacity="0"
                         fill="#D8D8D8"
                         points="0 0 24 0 24 24 0 24" />
                <path d="M21.05375,17.035 C22.09875,18.88375 21.25,20.5 19.15375,20.5 L4.84625,20.5 C2.75625,20.5 1.9,
                         18.88375 2.94625,17.035 L10.1,3.89375 C11.14125,2.10125 12.85,2.00625 13.90125,3.89375
                         L21.05375,17.035 Z"
                      id="Shape"
                      stroke="#E60000"
                      stroke-linecap="round"
                      stroke-linejoin="round" />
                <path d="M12,7.5 L12,14.5625"
                      id="Shape"
                      stroke="#E60000"
                      stroke-linecap="round"
                      stroke-linejoin="round" />
                <path d="M12.1767725,16.8232561 C12.2744036,16.9208872 12.2744036,17.0791786 12.1767725,17.1768099
                         C12.0791414,17.274441 11.92085,17.274441 11.8232187,17.1768099 C11.7255876,17.0791787
                         11.7255876,16.9208874 11.8232187,16.8232561 C11.9208499,16.725625 12.0791412,16.725625
                         12.1767725,16.8232561"
                      id="Shape"
                      stroke="#E60000"
                      fill="#E60000"
                      stroke-linecap="round"
                      stroke-linejoin="round" />
            </g>
        </g>
    </g>
</svg>
